<?xml version="1.0" encoding="UTF-8" standalone="no"?>
<svg xmlns="http://www.w3.org/2000/svg" viewBox="0 0 400 400">
  <g transform="translate(50, 50)">
    <!-- Gear/Cog background -->
    <path d="M150,0 L175,10 L200,0 L225,10 L250,30 L265,50 L270,75 L300,100 L270,125 L265,150 L250,170 L225,190 L200,200 L175,190 L150,200 L125,190 L100,170 L85,150 L80,125 L50,100 L80,75 L85,50 L100,30 L125,10 Z" fill="#1D5EA8"/>
    
    <!-- Buildings and crane -->
    <g transform="translate(50, 50)">
      <!-- Skyscrapers -->
      <rect x="20" y="50" width="30" height="100" fill="#1D5EA8"/>
      <rect x="60" y="30" width="30" height="120" fill="#1D5EA8"/>
      <rect x="100" y="60" width="30" height="90" fill="#1D5EA8"/>
      
      <!-- Circle in the middle building -->
      <circle cx="75" cy="65" r="10" fill="white"/>
      
      <!-- Construction crane -->
      <rect x="10" y="30" width="10" height="120" fill="#1D5EA8"/>
      <polygon points="10,30 60,30 60,40 10,40" fill="#1D5EA8"/>
      <polygon points="60,30 60,40 100,15 100,5" fill="#1D5EA8"/>
    </g>
    
    <!-- Foundation arch -->
    <path d="M100,150 Q150,180 200,150" stroke="#1D5EA8" stroke-width="8" fill="none"/>
  </g>
</svg>